# xmcd
#
# Track frame offsets:
#	150
#	16493
#	30062
#	44942
#	65790
#	81475
#	97261
#	108072
#	124540
#	136007
#	147304
#	162972
#	172983
#	184183
#
# Disc length: 2620 seconds
#
# Revision: 0
# Processed by: cddbd v1.5.2PL0 Copyright (c) Steve Scherf et al.
# Submitted via: EZCDAudioConverter 2.1.7.1
#
DISCID=be0a3a0e
DTITLE=Chris Farlowe - 14 Things To Think About
DYEAR=1900
DGENRE=
TTITLE0=Think
TTITLE1=My Colouring Book
TTITLE2=Lipstick Traces
TTITLE3=Summertime
TTITLE4=That's No Big Thing
TTITLE5=Don't Play That Song
TTITLE6=Looking For You
TTITLE7=It's All Over Now, Baby Blue
TTITLE8=I Just Don't Know What To Do With Myself
TTITLE9=Rockin' Pneumonia
TTITLE10=Why Don't You Change Your Ways
TTITLE11=My Girl Josephine
TTITLE12=Yesterday
TTITLE13=Don't Just Look At Me
EXTD=
EXTT0=
EXTT1=
EXTT2=
EXTT3=
EXTT4=
EXTT5=
EXTT6=
EXTT7=
EXTT8=
EXTT9=
EXTT10=
EXTT11=
EXTT12=
EXTT13=
PLAYORDER=
